<svg width="130" height="20" viewBox="0 0 130 20" fill="none" xmlns="http://www.w3.org/2000/svg">
<path d="M0 0.8125C0 0.592448 0.0677083 0.402018 0.203125 0.241211C0.347005 0.0804036 0.516276 0 0.710938 0H11.0195C11.2396 0 11.4046 0.0719401 11.5146 0.21582C11.6331 0.351237 11.6924 0.520508 11.6924 0.723633V2.10742C11.6924 2.30208 11.6331 2.47135 11.5146 2.61523C11.4046 2.75065 11.2396 2.81836 11.0195 2.81836H3.18652V9.12793H9.49609C9.71615 9.12793 9.88118 9.19987 9.99121 9.34375C10.1097 9.48763 10.1689 9.6569 10.1689 9.85156V11.2227C10.1689 11.4173 10.1097 11.5866 9.99121 11.7305C9.88118 11.8659 9.71615 11.9336 9.49609 11.9336H3.17383V18.6494C3.17383 18.8695 3.10189 19.0599 2.95801 19.2207C2.82259 19.3815 2.65755 19.4619 2.46289 19.4619H0.698242C0.503581 19.4619 0.338542 19.3815 0.203125 19.2207C0.0677083 19.0599 0 18.8695 0 18.6494V0.8125ZM25.9619 18.7891C25.9619 19.2376 25.7419 19.4619 25.3018 19.4619H24.0703C23.7402 19.4619 23.5413 19.3984 23.4736 19.2715C23.4059 19.1361 23.3678 19.0176 23.3594 18.916C23.3509 18.806 23.334 18.6748 23.3086 18.5225C23.2578 18.1077 23.1859 17.6592 23.0928 17.1768C22.4326 18.387 21.3958 19.1868 19.9824 19.5762C19.4831 19.7116 18.9329 19.7793 18.332 19.7793C17.7311 19.7793 17.1302 19.6777 16.5293 19.4746C15.9284 19.2799 15.3952 18.988 14.9297 18.5986C13.8802 17.7184 13.3555 16.5632 13.3555 15.1328C13.3555 13.5671 13.931 12.3695 15.082 11.54C16.0299 10.8714 17.2487 10.5371 18.7383 10.5371C20.2279 10.5371 21.4889 10.973 22.5215 11.8447C22.5469 11.557 22.5596 11.1973 22.5596 10.7656C22.5596 10.334 22.4749 9.90234 22.3057 9.4707C22.1364 9.03906 21.8952 8.67936 21.582 8.3916C20.9388 7.82454 20.0417 7.54102 18.8906 7.54102C17.8581 7.54102 16.8086 7.82454 15.7422 8.3916C15.5391 8.50163 15.3613 8.55664 15.209 8.55664C14.9805 8.55664 14.7604 8.33236 14.5488 7.88379C14.3203 7.42676 14.2061 7.09668 14.2061 6.89355C14.2061 6.52116 14.4854 6.16146 15.0439 5.81445C16.1104 5.1543 17.5365 4.82422 19.3223 4.82422C20.9473 4.82422 22.293 5.26855 23.3594 6.15723C24.6204 7.22363 25.251 8.73014 25.251 10.6768C25.251 11.54 25.1113 12.6276 24.832 13.9395C25.5514 15.9876 25.9281 17.6042 25.9619 18.7891ZM17.4561 13.4062C17.109 13.6602 16.8594 13.9141 16.707 14.168C16.5632 14.4219 16.4912 14.7223 16.4912 15.0693C16.4912 15.4079 16.5505 15.7126 16.6689 15.9834C16.7959 16.2458 16.9694 16.4658 17.1895 16.6436C17.6549 17.0075 18.1755 17.1895 18.751 17.1895C19.335 17.1895 19.8132 17.1217 20.1855 16.9863C20.5579 16.8509 20.8796 16.6774 21.1504 16.4658C21.7344 16.0088 22.0264 15.5264 22.0264 15.0186C21.9756 14.3838 21.6243 13.8844 20.9727 13.5205C20.3887 13.182 19.6989 13.0127 18.9033 13.0127C18.2855 13.0127 17.8031 13.1439 17.4561 13.4062ZM33.6045 17.1768C35.2295 17.1768 36.042 16.6309 36.042 15.5391C36.042 14.9382 35.5807 14.4303 34.6582 14.0156C34.2689 13.8379 33.8415 13.6729 33.376 13.5205C32.9189 13.3682 32.4788 13.1862 32.0557 12.9746C31.6325 12.763 31.2347 12.5345 30.8623 12.2891C30.4984 12.0352 30.181 11.7474 29.9102 11.4258C29.3516 10.7487 29.0723 9.88965 29.0723 8.84863C29.0723 7.5791 29.6012 6.57194 30.6592 5.82715C31.5986 5.15853 32.7539 4.82422 34.125 4.82422C35.5977 4.82422 36.8291 5.11198 37.8193 5.6875C38.1579 5.89062 38.3271 6.12337 38.3271 6.38574C38.3271 6.75814 38.2256 7.16862 38.0225 7.61719C37.8278 8.05729 37.5951 8.27734 37.3242 8.27734C37.0618 8.27734 36.8206 8.22233 36.6006 8.1123C36.389 8.00228 36.1943 7.90918 36.0166 7.83301C35.8473 7.74837 35.6654 7.68066 35.4707 7.62988C35.0475 7.50293 34.654 7.43945 34.29 7.43945C33.9346 7.43945 33.6468 7.46484 33.4268 7.51562C33.2067 7.56641 33.0078 7.64681 32.8301 7.75684C32.3984 8.01921 32.1826 8.34082 32.1826 8.72168C32.1826 9.10254 32.2673 9.39453 32.4365 9.59766C32.6143 9.80078 32.8555 9.98698 33.1602 10.1562C33.4648 10.3255 33.8288 10.4948 34.252 10.6641L35.623 11.2354C36.7318 11.7178 37.4808 12.1536 37.8701 12.543C38.6318 13.3216 39.0127 14.223 39.0127 15.2471C39.0127 16.5335 38.5726 17.5915 37.6924 18.4209C36.7191 19.3265 35.3353 19.7793 33.541 19.7793C31.7214 19.7793 30.3545 19.4281 29.4404 18.7256C28.9919 18.387 28.7676 18.0824 28.7676 17.8115C28.7676 17.5407 28.8141 17.2995 28.9072 17.0879C29.0088 16.8678 29.1357 16.6139 29.2881 16.3262C29.4489 16.0299 29.6605 15.8818 29.9229 15.8818C30.1937 15.8818 30.4772 16.0046 30.7734 16.25C31.0781 16.487 31.4928 16.7028 32.0176 16.8975C32.5423 17.0837 33.0713 17.1768 33.6045 17.1768ZM50.3877 7.07129C50.3877 7.54525 50.1211 7.78223 49.5879 7.78223H46.0078V15.7549C46.0078 16.6182 46.4352 17.0498 47.29 17.0498C47.8317 17.0498 48.5384 16.779 49.4102 16.2373C49.5794 16.1273 49.7614 16.0723 49.9561 16.0723C50.1592 16.0723 50.32 16.2119 50.4385 16.4912L50.7305 17.1514C50.8405 17.4053 50.8955 17.6211 50.8955 17.7988C50.8955 17.9766 50.7601 18.1839 50.4893 18.4209C50.2269 18.6494 49.8883 18.8568 49.4736 19.043C48.5342 19.4661 47.6836 19.6777 46.9219 19.6777C46.1602 19.6777 45.555 19.6016 45.1064 19.4492C44.6663 19.2884 44.2897 19.0514 43.9766 18.7383C43.2995 18.0781 42.9609 17.126 42.9609 15.8818V7.78223H41.8945C41.3613 7.78223 41.0947 7.54102 41.0947 7.05859V6.33496C41.0947 6.1403 41.1455 5.98796 41.2471 5.87793C41.3486 5.7679 41.5475 5.68327 41.8438 5.62402L43.1133 5.25586L43.5957 2.27246C43.6888 1.71387 43.9173 1.43457 44.2812 1.43457H45.335C45.5296 1.43457 45.6904 1.51497 45.8174 1.67578C45.9443 1.82812 46.0078 2.02702 46.0078 2.27246V5.1416H49.5879C50.1211 5.1416 50.3877 5.37435 50.3877 5.83984V7.07129ZM73.6201 16.7324L74.9277 16.5547C75.1647 16.5547 75.3298 16.6351 75.4229 16.7959C75.5244 16.9567 75.5964 17.1302 75.6387 17.3164C75.6895 17.4941 75.736 17.6549 75.7783 17.7988C75.8206 17.9427 75.8418 18.0993 75.8418 18.2686C75.8418 18.4378 75.7572 18.6113 75.5879 18.7891C75.4271 18.9583 75.2197 19.1107 74.9658 19.2461C74.4242 19.5339 73.8571 19.6777 73.2646 19.6777C72.6807 19.6777 72.1517 19.61 71.6777 19.4746C71.2038 19.3392 70.7552 19.153 70.332 18.916C69.6719 18.5436 68.9948 18.0189 68.3008 17.3418C67.6152 16.6647 67.0693 16.085 66.6631 15.6025L64.5684 13.0127C64.2721 12.6572 64.0055 12.3695 63.7686 12.1494V18.6621C63.7686 19.0007 63.6543 19.2419 63.4258 19.3857C63.3411 19.4365 63.2438 19.4619 63.1338 19.4619H61.3184C61.0898 19.4619 60.929 19.3942 60.8359 19.2588C60.6836 19.0387 60.6074 18.8398 60.6074 18.6621V1.11719C60.6074 0.820964 60.6836 0.562826 60.8359 0.342773C60.9967 0.114258 61.2549 0 61.6104 0H67.2725C72.3083 0 74.8262 1.98893 74.8262 5.9668C74.8262 7.79492 74.1491 9.33105 72.7949 10.5752C71.5169 11.7516 70.0104 12.3398 68.2754 12.3398C67.9707 12.3398 67.6787 12.3187 67.3994 12.2764L68.9609 13.9268C69.8581 14.8662 70.5563 15.501 71.0557 15.8311C71.9528 16.432 72.8076 16.7324 73.6201 16.7324ZM63.7686 9.72461C64.7249 9.94466 65.5882 10.0547 66.3584 10.0547C67.137 10.0547 67.8311 9.98275 68.4404 9.83887C69.0498 9.69499 69.5915 9.46647 70.0654 9.15332C71.1149 8.47624 71.6396 7.47331 71.6396 6.14453C71.6396 4.95117 71.1868 4.06673 70.2812 3.49121C69.5195 3.00879 68.487 2.76758 67.1836 2.76758H63.7686V9.72461ZM81.5801 13L81.5674 13.2412C81.5674 14.4007 81.9355 15.3317 82.6719 16.0342C83.4421 16.779 84.4873 17.1514 85.8076 17.1514C87.0094 17.1514 88.1266 16.7917 89.1592 16.0723C89.3538 15.9368 89.5273 15.8691 89.6797 15.8691C89.9928 15.8691 90.2298 16.0257 90.3906 16.3389L90.7334 17.0498C90.8096 17.2191 90.8477 17.401 90.8477 17.5957C90.8477 17.7904 90.7588 17.9935 90.5811 18.2051C90.4118 18.4082 90.1875 18.5944 89.9082 18.7637C89.6289 18.9329 89.3031 19.0811 88.9307 19.208C88.5667 19.335 88.1901 19.4408 87.8008 19.5254C87.0221 19.6947 86.2096 19.7793 85.3633 19.7793C84.5169 19.7793 83.6621 19.6185 82.7988 19.2969C81.944 18.9753 81.2035 18.5055 80.5771 17.8877C79.2314 16.5758 78.5586 14.8027 78.5586 12.5684C78.5586 8.64974 79.9382 6.21224 82.6973 5.25586C83.5605 4.95964 84.445 4.81152 85.3506 4.81152C86.2646 4.81152 87.0391 4.90885 87.6738 5.10352C88.3171 5.29818 88.8714 5.58594 89.3369 5.9668C90.3187 6.77083 90.8096 7.89225 90.8096 9.33105C90.8096 10.7445 90.234 11.8236 89.083 12.5684C88.0758 13.2201 86.7471 13.5459 85.0967 13.5459C84.0811 13.5459 82.9089 13.3639 81.5801 13ZM87.8262 9.29297C87.8262 8.08268 87.0137 7.47754 85.3887 7.47754C83.8398 7.47754 82.7565 8.0446 82.1387 9.17871C81.9186 9.5765 81.7747 10.0674 81.707 10.6514C82.4349 11.0153 83.3617 11.1973 84.4873 11.1973C86.7132 11.1973 87.8262 10.5625 87.8262 9.29297ZM102.388 7.07129C102.388 7.54525 102.121 7.78223 101.588 7.78223H98.0078V15.7549C98.0078 16.6182 98.4352 17.0498 99.29 17.0498C99.8317 17.0498 100.538 16.779 101.41 16.2373C101.579 16.1273 101.761 16.0723 101.956 16.0723C102.159 16.0723 102.32 16.2119 102.438 16.4912L102.73 17.1514C102.84 17.4053 102.896 17.6211 102.896 17.7988C102.896 17.9766 102.76 18.1839 102.489 18.4209C102.227 18.6494 101.888 18.8568 101.474 19.043C100.534 19.4661 99.6836 19.6777 98.9219 19.6777C98.1602 19.6777 97.555 19.6016 97.1064 19.4492C96.6663 19.2884 96.2897 19.0514 95.9766 18.7383C95.2995 18.0781 94.9609 17.126 94.9609 15.8818V7.78223H93.8945C93.3613 7.78223 93.0947 7.54102 93.0947 7.05859V6.33496C93.0947 6.1403 93.1455 5.98796 93.2471 5.87793C93.3486 5.7679 93.5475 5.68327 93.8438 5.62402L95.1133 5.25586L95.5957 2.27246C95.6888 1.71387 95.9173 1.43457 96.2812 1.43457H97.335C97.5296 1.43457 97.6904 1.51497 97.8174 1.67578C97.9443 1.82812 98.0078 2.02702 98.0078 2.27246V5.1416H101.588C102.121 5.1416 102.388 5.37435 102.388 5.83984V7.07129ZM105.13 6.05566C105.13 5.44629 105.396 5.1416 105.93 5.1416H106.615C107.081 5.1416 107.411 5.34473 107.605 5.75098C107.885 6.34342 108.088 7.16016 108.215 8.20117C108.215 8.2181 108.219 8.22656 108.228 8.22656C108.244 8.22656 108.274 8.08268 108.316 7.79492C108.359 7.50716 108.481 7.15592 108.685 6.74121C108.888 6.31803 109.137 5.96257 109.434 5.6748C110.035 5.10775 110.771 4.82422 111.643 4.82422C112.616 4.82422 113.293 4.98503 113.674 5.30664C113.852 5.45052 113.924 5.64941 113.89 5.90332L113.687 7.50293C113.636 7.93457 113.416 8.15039 113.026 8.15039C112.84 8.15039 112.612 8.1123 112.341 8.03613C111.816 7.90072 111.401 7.83301 111.097 7.83301C110.792 7.83301 110.47 7.96842 110.132 8.23926C109.793 8.50163 109.501 8.83171 109.256 9.22949C108.757 10.0589 108.507 10.9434 108.507 11.8828V18.624C108.507 18.861 108.439 19.0599 108.304 19.2207C108.168 19.3815 107.974 19.4619 107.72 19.4619H106.247C105.976 19.4619 105.769 19.3815 105.625 19.2207C105.49 19.0599 105.422 18.861 105.422 18.624V9.87695C105.422 8.38737 105.371 7.4056 105.27 6.93164C105.176 6.44922 105.13 6.15723 105.13 6.05566ZM115.477 12.251C115.477 11.1507 115.659 10.1436 116.022 9.22949C116.395 8.30697 116.903 7.51986 117.546 6.86816C118.892 5.50553 120.589 4.82422 122.637 4.82422C124.93 4.82422 126.708 5.50553 127.969 6.86816C129.188 8.18001 129.797 9.98275 129.797 12.2764C129.797 14.4938 129.107 16.305 127.728 17.71C126.382 19.0895 124.685 19.7793 122.637 19.7793C120.479 19.7793 118.743 19.0726 117.432 17.6592C116.128 16.2796 115.477 14.4769 115.477 12.251ZM119.552 9.02637C119.239 9.49186 119.01 10.0251 118.866 10.626C118.722 11.2184 118.65 11.8236 118.65 12.4414C118.65 13.0508 118.731 13.639 118.892 14.2061C119.061 14.7646 119.311 15.264 119.641 15.7041C120.368 16.6689 121.384 17.1514 122.688 17.1514C124.016 17.1514 125.023 16.6774 125.709 15.7295C126.318 14.9001 126.623 13.7702 126.623 12.3398C126.623 10.1986 125.921 8.72168 124.516 7.90918C123.999 7.61296 123.373 7.46484 122.637 7.46484C121.909 7.46484 121.291 7.60872 120.783 7.89648C120.284 8.17578 119.873 8.55241 119.552 9.02637Z" fill="#DBDDDF"/>
</svg>
